<svg xmlns="http://www.w3.org/2000/svg" width="32" height="32"><g transform="translate(-1040 8)"><rect data-name="長方形 43" width="32" height="32" rx="2.4" transform="translate(1040 -8)" fill="#1da1f2"/><path data-name="パス 131" d="M1052.288 16.128a11.6 11.6 0 0 0 11.672-11.672c0-.176 0-.352-.008-.528A8.357 8.357 0 0 0 1066 1.8a8.314 8.314 0 0 1-2.36.648 4.127 4.127 0 0 0 1.808-2.276 8.16 8.16 0 0 1-2.608.992 4.1 4.1 0 0 0-7.1 2.808 4.535 4.535 0 0 0 .1.936 11.649 11.649 0 0 1-8.456-4.288 4.119 4.119 0 0 0 1.272 5.48 4.149 4.149 0 0 1-1.856-.512v.056a4.111 4.111 0 0 0 3.288 4.024 4.126 4.126 0 0 1-1.848.072 4.1 4.1 0 0 0 3.832 2.848 8.228 8.228 0 0 1-5.1 1.76 7.894 7.894 0 0 1-.976-.056 11.669 11.669 0 0 0 6.28 1.832" fill="#fff"/></g></svg>