<svg xmlns="http://www.w3.org/2000/svg" width="222.585" height="40"><g data-name="レイヤー 1" fill="#34495e"><path data-name="パス 137" d="M36.1 20.172a10.085 10.085 0 1 0-9.356-13.856L23.093 0l-6.928 12.009 6.928 12.009L32.4 8.025h9.237L23.093 40 11.547 20 0 40h46.187L34.682 20.07a10.161 10.161 0 0 0 1.42.1z"/><path data-name="パス 138" d="M86.171 31.661h-3.749V30.4c-.63 1.021-1.441 1.531-3.422 1.531-3.032 0-5.524-1.5-5.524-5.914V16.65h3.843v8.8c0 2.372.841 3.182 2.432 3.182 1.771 0 2.612-1.081 2.612-3.152v-8.83h3.813z"/><path data-name="パス 139" d="M121.176 10.946v3.573h-8.714v5.134h7.806v3.543h-7.806v8.466h-4.2V10.946z"/><path data-name="パス 140" d="M143.511 20.883a3.25 3.25 0 0 0-2.942-1.2c-.991 0-1.891.3-1.891 1.171s.811 1.231 2.4 1.471c3.695.57 5.554 1.981 5.554 4.954 0 2.882-2.011 4.653-5.884 4.653-3.062 0-4.924-.751-6.214-2.492l2.942-2.1c.6.811 1.351 1.291 3.212 1.291 1.321 0 2.132-.45 2.132-1.231 0-.924-.66-1.231-2.552-1.531-3.122-.51-5.4-1.831-5.4-4.852 0-2.852 2.042-4.619 5.794-4.619 2.462 0 4.5.57 5.674 2.492z"/><path data-name="パス 141" d="M155.998 26.887a3.448 3.448 0 0 0 2.822 1.5c2.011 0 3.092-1.081 3.092-4.683V10.946h4.2v12.759c0 5.974-2.672 8.226-7.025 8.226a7.527 7.527 0 0 1-6.575-3.092z"/><path data-name="パス 142" d="M64.528 24.869v.007l-4.536-13.93h-4.593l7.235 20.715h3.813l.15-.427z"/><path data-name="パス 143" d="M67.349 29.07l6.3-18.124h-4.593l-3.8 11.683z"/><path data-name="パス 144" d="M99.89 23.405c0-4.563-1.951-7.025-6.184-7.025-3.9 0-6.184 2.192-6.184 6.725v2.045c0 3.873 2.162 6.785 6.665 6.785 2.7 0 4.443-.721 5.494-2.552l-2.85-1.985a2.678 2.678 0 0 1-2.672 1.291c-2.132 0-2.792-1.5-2.822-3.573v-2.732c.15-1.711.871-2.771 2.4-2.771 1.441 0 2.222.811 2.309 2.771h-3.325v2.732h7.159z"/><path data-name="パス 145" d="M134.025 23.405c0-4.563-1.951-7.025-6.184-7.025-3.9 0-6.184 2.192-6.184 6.725v2.045c0 3.873 2.161 6.785 6.665 6.785 2.7 0 4.443-.721 5.494-2.552l-2.852-1.981a2.678 2.678 0 0 1-2.672 1.291c-2.132 0-2.792-1.5-2.822-3.573v-2.736c.15-1.711.871-2.771 2.4-2.771 1.441 0 2.222.811 2.309 2.771h-3.323v2.732h7.173z"/><path data-name="パス 146" d="M173.951 16.38c-3.092 0-4.773.66-5.884 2.492l2.7 1.891c.63-.991 1.351-1.2 2.822-1.2 2.162 0 2.672.54 2.672 2.222v4.257c0 2.041-.841 2.792-2.582 2.792-1.321 0-2.192-.54-2.192-1.681s.693-1.681 2.252-1.681h1.136V22.65h-1.586c-3.152 0-5.554 1.386-5.554 4.563 0 3.062 2.161 4.713 5.284 4.713a3.27 3.27 0 0 0 3.233-1.591v1.321h3.753v-9.842c.012-4.293-2.186-5.434-6.054-5.434z"/><path data-name="パス 147" d="M213.726 17.911V16.65h-3.84v15.011h3.84v-13.75z"/><path data-name="パス 148" d="M217.092 16.38a4.554 4.554 0 0 0-1.977.425v3.138a2.854 2.854 0 0 1 1.256-.261c1.561 0 2.4.841 2.4 3.182v8.8h3.813v-9.4c.002-4.443-2.46-5.884-5.492-5.884z"/><path data-name="パス 149" d="M189.051 16.38a4.248 4.248 0 0 0-3.332 1.261v-.991h-3.843v20.715h3.843v-14.35c0-2.192.841-3.392 2.672-3.392 1.891 0 2.642 1.321 2.642 3.723v1.561c0 2.162-.57 3.783-2.642 3.783a2.838 2.838 0 0 1-1.286-.268v3.3a7.764 7.764 0 0 0 1.917.208c3.873 0 5.854-2.882 5.854-6.785v-2.04c-.001-4.293-2.342-6.725-5.825-6.725z"/><path data-name="パス 150" d="M201.96 16.38c-3.092 0-4.773.66-5.884 2.492l2.7 1.891c.63-.991 1.351-1.2 2.822-1.2 2.162 0 2.672.54 2.672 2.222v4.257c0 2.041-.841 2.792-2.582 2.792-1.321 0-2.192-.54-2.192-1.681s.693-1.681 2.252-1.681h1.136V22.65h-1.586c-3.152 0-5.554 1.386-5.554 4.563 0 3.062 2.162 4.713 5.284 4.713a3.27 3.27 0 0 0 3.233-1.591v1.321h3.762v-9.842c.002-4.293-2.19-5.434-6.063-5.434z"/></g></svg>