<svg xmlns="http://www.w3.org/2000/svg" width="220" height="39.536"><g fill="#fff" data-name="Group 29"><path data-name="Path 3" d="M35.683 19.938a9.968 9.968 0 1 0-9.249-13.7L22.825 0l-6.847 11.869 6.848 11.869 9.2-15.806h9.13l-18.329 31.6-11.414-19.765L0 39.535h45.65l-11.371-19.7a10.043 10.043 0 0 0 1.4.1z"/><path data-name="Path 4" d="M85.168 31.293h-3.709v-1.246c-.623 1.009-1.424 1.513-3.383 1.513-3 0-5.46-1.484-5.46-5.846v-9.257h3.8v8.694c0 2.344.831 3.145 2.4 3.145 1.751 0 2.582-1.068 2.582-3.116v-8.723h3.77z"/><path data-name="Path 5" d="M119.768 10.819v3.531h-8.61v5.074h7.715v3.5h-7.715v8.368h-4.154V10.819z"/><path data-name="Path 6" d="M141.844 20.641a3.213 3.213 0 0 0-2.908-1.187c-.979 0-1.869.3-1.869 1.157s.8 1.217 2.374 1.454c3.652.564 5.49 1.958 5.49 4.9 0 2.849-1.988 4.6-5.816 4.6-3.027 0-4.866-.742-6.142-2.463l2.908-2.077c.593.8 1.335 1.276 3.175 1.276 1.306 0 2.107-.445 2.107-1.217 0-.913-.653-1.217-2.522-1.513-3.086-.5-5.341-1.81-5.341-4.8 0-2.819 2.018-4.565 5.727-4.565 2.433 0 4.451.564 5.608 2.463z"/><path data-name="Path 7" d="M154.186 26.575a3.408 3.408 0 0 0 2.789 1.484c1.988 0 3.056-1.068 3.056-4.629V10.819h4.154V23.43c0 5.9-2.641 8.13-6.943 8.13a7.44 7.44 0 0 1-6.5-3.056z"/><path data-name="Path 8" d="M63.778 24.58v.007l-4.483-13.768h-4.54l7.151 20.474h3.768l.148-.422z"/><path data-name="Path 9" d="M66.567 28.732l6.229-17.913h-4.54l-3.757 11.547z"/><path data-name="Path 10" d="M98.73 23.133c0-4.51-1.929-6.943-6.113-6.943-3.857 0-6.113 2.166-6.113 6.647v2.018c0 3.828 2.136 6.706 6.587 6.706 2.671 0 4.392-.712 5.43-2.522l-2.819-1.958a2.647 2.647 0 0 1-2.641 1.276c-2.107 0-2.76-1.484-2.789-3.531v-2.7c.148-1.691.861-2.739 2.374-2.739 1.424 0 2.2.8 2.283 2.739h-3.287v2.7h7.073z"/><path data-name="Path 11" d="M132.468 23.133c0-4.51-1.929-6.943-6.113-6.943-3.857 0-6.113 2.166-6.113 6.647v2.018c0 3.828 2.136 6.706 6.587 6.706 2.671 0 4.392-.712 5.43-2.522l-2.816-1.959a2.647 2.647 0 0 1-2.641 1.276c-2.107 0-2.76-1.484-2.789-3.531v-2.7c.148-1.691.86-2.739 2.374-2.739 1.424 0 2.2.8 2.283 2.739h-3.289v2.7h7.089z"/><path data-name="Path 12" d="M171.93 16.19c-3.056 0-4.718.653-5.816 2.463l2.671 1.869c.623-.979 1.335-1.187 2.789-1.187 2.136 0 2.641.534 2.641 2.2v4.214c0 2.018-.831 2.76-2.552 2.76-1.306 0-2.166-.534-2.166-1.662s.685-1.662 2.225-1.662h1.126v-2.793h-1.57c-3.116 0-5.49 1.37-5.49 4.51 0 3.027 2.136 4.659 5.222 4.659a3.232 3.232 0 0 0 3.2-1.573v1.306h3.709V21.56c.008-4.242-2.165-5.37-5.989-5.37z"/><path data-name="Path 13" d="M211.246 17.703v-1.246h-3.8v14.836h3.8v-13.59z"/><path data-name="Path 14" d="M214.57 16.19a4.5 4.5 0 0 0-1.954.42v3.1a2.821 2.821 0 0 1 1.242-.258c1.543 0 2.374.831 2.374 3.145v8.694H220v-9.285c0-4.392-2.433-5.816-5.43-5.816z"/><path data-name="Path 15" d="M186.856 16.19a4.2 4.2 0 0 0-3.294 1.246v-.976h-3.8v20.471h3.8V22.748c0-2.166.831-3.353 2.641-3.353 1.869 0 2.611 1.306 2.611 3.679v1.543c0 2.136-.564 3.739-2.611 3.739a2.805 2.805 0 0 1-1.271-.265v3.269a7.673 7.673 0 0 0 1.894.205c3.828 0 5.786-2.849 5.786-6.706v-2.022c0-4.244-2.318-6.647-5.756-6.647z"/><path data-name="Path 16" d="M199.615 16.19c-3.056 0-4.718.653-5.816 2.463l2.671 1.869c.623-.979 1.335-1.187 2.789-1.187 2.136 0 2.641.534 2.641 2.2v4.214c0 2.018-.831 2.76-2.552 2.76-1.306 0-2.166-.534-2.166-1.662s.685-1.662 2.225-1.662h1.123v-2.793h-1.568c-3.116 0-5.489 1.37-5.489 4.51 0 3.027 2.136 4.659 5.222 4.659a3.232 3.232 0 0 0 3.2-1.573v1.306h3.718V21.56c-.004-4.242-2.17-5.37-5.998-5.37z"/></g></svg>