<svg width="9" height="9" fill="none" xmlns="http://www.w3.org/2000/svg"><path d="M6.248 7.616c-.76-.28-1.064-.536-1.552-.936-.416.32-.888.624-1.384.88-.504.256-.984.448-1.76.712a.362.362 0 01-.128.024.399.399 0 01-.368-.248 2.744 2.744 0 00-.456-.76.4.4 0 01.2-.64c1.192-.328 1.984-.664 2.672-1.16a7.469 7.469 0 01-.712-1.016c-.28-.472-.432-.808-.664-1.48h-.088a7.95 7.95 0 00-.928.048h-.048a.368.368 0 01-.264-.104.384.384 0 01-.136-.296v-.912c0-.112.048-.224.136-.304a.398.398 0 01.264-.096h.056c.288.04.552.056.944.056H3.76v-.168c0-.216-.016-.384-.048-.528A.406.406 0 014.104.2H5.12a.406.406 0 01.392.488 2.449 2.449 0 00-.048.52v.176h1.832c.408 0 .672-.016.952-.056h.056c.096 0 .192.032.264.096a.389.389 0 01.136.304v.904a.384.384 0 01-.136.296.405.405 0 01-.264.104h-.048a8.049 8.049 0 00-.928-.048h-.12a6.268 6.268 0 01-.576 1.4c-.208.392-.44.736-.72 1.088.328.24 1.384.672 1.464.68.176.056.168.088.136.16-.04.144-.992 1.128-1.072 1.232-.064.104-.192.072-.192.072zm-2.36-4.632c.104.264.216.48.384.76.136.224.272.408.416.592.144-.184.272-.376.392-.592a4.71 4.71 0 00.352-.76H3.888z" fill="#34495E"/></svg>