<svg data-name="Group 30" xmlns="http://www.w3.org/2000/svg" width="18" height="18"><path data-name="Rectangle 49" fill="none" d="M0 0h18v18H0z"/><path data-name="Path 135" d="M17.105 4.393a2.276 2.276 0 0 0-1.5-1.692 44.79 44.79 0 0 0-6.609-.4 44.79 44.79 0 0 0-6.609.4 2.276 2.276 0 0 0-1.5 1.692 30.172 30.172 0 0 0 0 9.213 2.276 2.276 0 0 0 1.504 1.696 44.79 44.79 0 0 0 6.609.4 44.79 44.79 0 0 0 6.609-.4 2.276 2.276 0 0 0 1.5-1.692 28.091 28.091 0 0 0 .354-4.606 28.091 28.091 0 0 0-.358-4.611zM7.27 11.827V6.173l4.422 2.829z" fill="#fff"/></svg>