<svg xmlns="http://www.w3.org/2000/svg" width="18" height="18"><g data-name="Dark Blue"><path data-name="Rectangle 47" fill="none" d="M0 0h18v18H0z"/></g><g data-name="Logo — FIXED"><path data-name="Path 134" d="M6.889 13.654a6.619 6.619 0 0 0 6.64-6.685c0-.1 0-.2-.007-.3a4.767 4.767 0 0 0 1.164-1.216 4.634 4.634 0 0 1-1.34.37 2.355 2.355 0 0 0 1.026-1.3 4.658 4.658 0 0 1-1.482.57 2.325 2.325 0 0 0-2.8-.462 2.357 2.357 0 0 0-1.173 2.605 6.611 6.611 0 0 1-4.81-2.455 2.361 2.361 0 0 0 .723 3.136 2.3 2.3 0 0 1-1.059-.294v.03a2.347 2.347 0 0 0 1.872 2.3 2.315 2.315 0 0 1-1.054.04 2.338 2.338 0 0 0 2.18 1.632 4.663 4.663 0 0 1-2.9 1.008 4.717 4.717 0 0 1-.557-.035 6.575 6.575 0 0 0 3.577 1.054" fill="#fff"/><path data-name="Rectangle 48" fill="none" d="M0 0h18v18H0z"/></g></svg>