<svg xmlns="http://www.w3.org/2000/svg" width="16" height="15.605"><path data-name="Path 136" d="M7.999 0a8 8 0 0 0-2.528 15.591c.4.073.546-.173.546-.386 0-.19-.007-.693-.011-1.361-2.225.484-2.695-1.072-2.695-1.072a2.119 2.119 0 0 0-.888-1.17c-.726-.5.055-.486.055-.486a1.68 1.68 0 0 1 1.225.824 1.7 1.7 0 0 0 2.328.665 1.71 1.71 0 0 1 .508-1.07c-1.776-.2-3.644-.888-3.644-3.954a3.093 3.093 0 0 1 .824-2.147 2.874 2.874 0 0 1 .079-2.117s.671-.215 2.2.82a7.586 7.586 0 0 1 4.006 0c1.527-1.035 2.2-.82 2.2-.82a2.875 2.875 0 0 1 .08 2.117 3.087 3.087 0 0 1 .822 2.147c0 3.073-1.871 3.75-3.653 3.948a1.91 1.91 0 0 1 .543 1.482c0 1.07-.01 1.933-.01 2.195 0 .214.144.463.55.385A8 8 0 0 0 8.002.001z" fill="#fff" fill-rule="evenodd"/></svg>